<?xml version="1.0" encoding="UTF-8"?><svg id="Layer_1" xmlns="http://www.w3.org/2000/svg" viewBox="0 0 1024 1024"><defs><style>.cls-1{fill:#b7cef1;}.cls-2{fill:#008efff5;font-family:monospace;font-size:334.87px;}.cls-3{fill:#9ae6ef;opacity:.21;}</style></defs><g><polygon class="cls-3" points="863.64 732.03 863.64 326 512 122.98 160.36 326 160.36 732.03 512 935.05 863.64 732.03"/><polygon class="cls-1" points="838.81 655 838.81 277.63 512 88.95 185.19 277.63 185.19 655 512 843.69 838.81 655"/><path fill="#008efff5" d="M497.84,138.03l320.17,184.85v369.7l-320.17,184.85-320.17-184.85V322.88L497.84,138.03m0-15.01l-6.5,3.75L171.17,311.62l-6.5,3.75v384.71l6.5,3.75,320.17,184.85,6.5,3.75,6.5-3.75,320.17-184.85,6.5-3.75V315.38l-6.5-3.75L504.34,126.77l-6.5-3.75h0Z"/></g><text class="cls-2" transform="translate(321.53 590.19)"><tspan x="0" y="0">AP</tspan></text></svg>